# xmcd
#
# Track frame offsets: 
#        150
#        15088
#        37495
#        54658
#        77790
#        92509
#        112398
#        132208
#        150058
#        166323
#        184801
#        201493
#        216465
#
# Disc length: 3124 seconds
#
# Revision: 2
# Processed by: cddbd v1.5.2PL0 Copyright (c) Steve Scherf et al.
# Submitted via: ExactAudioCopy v0.99pb4
#
DISCID=b20c320d
DTITLE=Pinetop Perkins - Down In Mississippi
DYEAR=1900
DGENRE=Blues
TTITLE0=Down In Mississippi
TTITLE1=Song For SunnyLand Slim
TTITLE2=Pinetop's Boogie Woogie
TTITLE3=Little Girl, Litle Girl
TTITLE4=Just A Little Bit
TTITLE5=How Long
TTITLE6=Miss Ida B
TTITLE7=I Almost Lost My Mind
TTITLE8=Big Fat Mama
TTITLE9=Five Long Years
TTITLE10=Take It Easy Baby
TTITLE11=Pinetop's Piano Shuffle
TTITLE12=Kidney Stew
EXTD=ID3G:   0
EXTT0=
EXTT1=
EXTT2=
EXTT3=
EXTT4=
EXTT5=
EXTT6=
EXTT7=
EXTT8=
EXTT9=
EXTT10=
EXTT11=
EXTT12=
PLAYORDER=
